<?xml version="1.0" encoding="iso-8859-1"?>
<!-- Generator: Adobe Illustrator 19.0.1, SVG Export Plug-In . SVG Version: 6.00 Build 0)  -->
<svg version="1.1" baseProfile="tiny" xmlns="http://www.w3.org/2000/svg" xmlns:xlink="http://www.w3.org/1999/xlink" x="0px"
	 y="0px" viewBox="0 0 606 505.634" xml:space="preserve">
<g id="Text" display="none">
	<g display="inline">
		<rect x="405.379" y="192.714" fill="none" width="628.589" height="120.205"/>
		<path d="M417.539,306.313V198.471h15.201l34.561,54.561c8,12.64,14.241,24,19.361,35.041l0.32-0.16
			c-1.28-14.4-1.601-27.521-1.601-44.321v-45.121h13.12v107.842h-14.08l-34.241-54.721c-7.521-12-14.721-24.321-20.161-36.001
			l-0.48,0.16c0.8,13.6,1.12,26.561,1.12,44.481v46.081H417.539z"/>
		<path d="M534.497,207.111c0.16,4.8-3.36,8.64-8.96,8.64c-4.96,0-8.48-3.84-8.48-8.64c0-4.96,3.68-8.8,8.8-8.8
			C531.137,198.311,534.497,202.151,534.497,207.111z M518.816,306.313v-77.442h14.081v77.442H518.816z"/>
		<path d="M606.337,303.433c-3.68,1.92-11.84,4.48-22.24,4.48c-23.361,0-38.562-15.84-38.562-39.521
			c0-23.84,16.32-41.121,41.602-41.121c8.32,0,15.68,2.08,19.521,4l-3.2,10.88c-3.36-1.92-8.641-3.68-16.32-3.68
			c-17.761,0-27.361,13.12-27.361,29.28c0,17.92,11.521,28.961,26.881,28.961c8,0,13.28-2.08,17.28-3.84L606.337,303.433z"/>
		<path d="M631.616,264.392h0.319c1.921-2.72,4.641-6.08,6.881-8.8l22.721-26.721h16.96l-29.921,31.841l34.081,45.601h-17.12
			l-26.721-37.121l-7.2,8v29.121h-13.921V192.711h13.921V264.392z"/>
		<path d="M716.895,198.471h58.081v11.68h-44.16v35.841h40.801v11.52h-40.801v48.801h-13.921V198.471z"/>
		<path d="M800.736,207.111c0.16,4.8-3.359,8.64-8.96,8.64c-4.96,0-8.48-3.84-8.48-8.64c0-4.96,3.681-8.8,8.801-8.8
			C797.377,198.311,800.736,202.151,800.736,207.111z M785.057,306.313v-77.442h14.08v77.442H785.057z"/>
		<path d="M825.216,270.152c0.32,19.04,12.48,26.88,26.561,26.88c10.08,0,16.16-1.76,21.44-4l2.4,10.08
			c-4.96,2.24-13.44,4.8-25.761,4.8c-23.841,0-38.081-15.681-38.081-39.041s13.761-41.761,36.321-41.761c25.28,0,32,22.24,32,36.48
			c0,2.88-0.319,5.12-0.479,6.561H825.216z M866.497,260.072c0.159-8.96-3.681-22.88-19.521-22.88
			c-14.24,0-20.48,13.12-21.601,22.88H866.497z"/>
		<path d="M892.414,192.711h14.08v113.603h-14.08V192.711z"/>
		<path d="M991.934,192.711v93.602c0,6.88,0.16,14.72,0.641,20h-12.641l-0.64-13.44h-0.32c-4.32,8.64-13.761,15.201-26.4,15.201
			c-18.721,0-33.121-15.841-33.121-39.361c-0.16-25.76,15.841-41.601,34.721-41.601c11.841,0,19.841,5.6,23.36,11.84h0.32v-46.241
			H991.934z M977.854,260.392c0-1.76-0.16-4.16-0.64-5.92c-2.08-8.96-9.761-16.32-20.321-16.32c-14.56,0-23.2,12.8-23.2,29.921
			c0,15.68,7.681,28.641,22.881,28.641c9.44,0,18.08-6.24,20.641-16.8c0.479-1.92,0.64-3.84,0.64-6.081V260.392z"/>
	</g>
</g>
<g id="Leg_Anchors" display="none">
	<line display="inline" stroke="#AAAAAA" stroke-miterlimit="10" x1="278.408" y1="17.779" x2="567.141" y2="472.709"/>
	<line display="inline" stroke="#AAAAAA" stroke-miterlimit="10" x1="242.408" y1="17.779" x2="531.141" y2="472.709"/>
	<line display="inline" stroke="#AAAAAA" stroke-miterlimit="10" x1="172.408" y1="18.779" x2="461.141" y2="473.709"/>
	<line display="inline" stroke="#AAAAAA" stroke-miterlimit="10" x1="237.408" y1="-69.221" x2="526.141" y2="385.709"/>
	<line display="inline" stroke="#AAAAAA" stroke-miterlimit="10" x1="215.408" y1="-69.221" x2="504.141" y2="385.709"/>
	<line display="inline" stroke="#AAAAAA" stroke-miterlimit="10" x1="303.408" y1="-69.221" x2="592.141" y2="385.709"/>
	<line display="inline" stroke="#AAAAAA" stroke-miterlimit="10" x1="278.408" y1="-69.221" x2="567.141" y2="385.709"/>
	<line display="inline" stroke="#AAAAAA" stroke-miterlimit="10" x1="349.408" y1="-69.221" x2="638.141" y2="385.709"/>
	<line display="inline" stroke="#AAAAAA" stroke-miterlimit="10" x1="333.408" y1="-69.221" x2="622.141" y2="385.709"/>
	<line display="inline" stroke="#AAAAAA" stroke-miterlimit="10" x1="275.408" y1="-48.221" x2="564.141" y2="406.709"/>
	<line display="inline" stroke="#AAAAAA" stroke-miterlimit="10" x1="268.408" y1="-48.221" x2="557.141" y2="406.709"/>
</g>
<g id="Leg_Reverse_Anchors" display="none">
	<line display="inline" stroke="#AAAAAA" stroke-miterlimit="10" x1="503.141" y1="15.779" x2="214.408" y2="470.709"/>
	<line display="inline" stroke="#AAAAAA" stroke-miterlimit="10" x1="393.141" y1="15.779" x2="104.408" y2="470.709"/>
	<line display="inline" stroke="#AAAAAA" stroke-miterlimit="10" x1="269.141" y1="15.779" x2="-19.592" y2="470.709"/>
	<line display="inline" stroke="#AAAAAA" stroke-miterlimit="10" x1="544.141" y1="-69.221" x2="255.408" y2="385.709"/>
	<line display="inline" stroke="#AAAAAA" stroke-miterlimit="10" x1="536.141" y1="-69.221" x2="247.408" y2="385.709"/>
	<line display="inline" stroke="#AAAAAA" stroke-miterlimit="10" x1="618.141" y1="-69.221" x2="329.408" y2="385.709"/>
	<line display="inline" stroke="#AAAAAA" stroke-miterlimit="10" x1="659.141" y1="-69.221" x2="370.408" y2="385.709"/>
	<line display="inline" stroke="#AAAAAA" stroke-miterlimit="10" x1="562.141" y1="-48.221" x2="273.408" y2="406.709"/>
	<line display="inline" stroke="#AAAAAA" stroke-miterlimit="10" x1="568.141" y1="-48.221" x2="279.408" y2="406.709"/>
	<line display="inline" stroke="#AAAAAA" stroke-miterlimit="10" x1="435.141" y1="21.779" x2="146.408" y2="476.709"/>
	<line display="inline" stroke="#AAAAAA" stroke-miterlimit="10" x1="456.141" y1="21.779" x2="167.408" y2="476.709"/>
	<line display="inline" stroke="#AAAAAA" stroke-miterlimit="10" x1="560.141" y1="21.779" x2="271.408" y2="476.709"/>
	<line display="inline" stroke="#AAAAAA" stroke-miterlimit="10" x1="191.408" y1="19.779" x2="480.141" y2="474.709"/>
	<line display="inline" stroke="#AAAAAA" stroke-miterlimit="10" x1="475.141" y1="22.779" x2="186.408" y2="477.709"/>
	<line display="inline" stroke="#AAAAAA" stroke-miterlimit="10" x1="140.408" y1="19.779" x2="429.141" y2="474.709"/>
	<line display="inline" stroke="#AAAAAA" stroke-miterlimit="10" x1="424.141" y1="22.779" x2="135.408" y2="477.709"/>
</g>
<g id="Vertical_Anchors" display="none">
	<line display="inline" stroke="#AAAAAA" stroke-miterlimit="10" x1="392.5" y1="14.46" x2="392.5" y2="472.46"/>
	<line display="inline" stroke="#AAAAAA" stroke-miterlimit="10" x1="338.5" y1="14.46" x2="338.5" y2="472.46"/>
	<line display="inline" stroke="#AAAAAA" stroke-miterlimit="10" x1="287.5" y1="14.46" x2="287.5" y2="472.46"/>
</g>
<g id="Illustration">
	<g id="Lower_Clouds">
		<path fill="none" stroke="#000000" stroke-linecap="round" stroke-miterlimit="10" stroke-dasharray="2,8" d="M375,339.911
			c0,0-16.5,79.882-77,79.882"/>
		<path fill="none" stroke="#000000" stroke-linecap="round" stroke-miterlimit="10" stroke-dasharray="1,8" d="M291.333,419.793
			c0,0-85.667,3.667-85.667-93.833"/>
		<path fill="none" stroke="#000000" stroke-width="2" stroke-miterlimit="10" stroke-dasharray="1,2" d="M307.9,446.244
			c0,0-54.357,66.314-127.05,1.337"/>
		<path fill="none" stroke="#000000" stroke-width="2" stroke-miterlimit="10" stroke-dasharray="1,7" d="M377.615,431.555
			c0,0-29.295,35.74-68.473,0.721"/>

			<line fill="none" stroke="#000000" stroke-miterlimit="10" stroke-dasharray="4,5" x1="425.75" y1="338.96" x2="470.833" y2="409.96"/>
	</g>
	<g id="Upper_Clouds">
		<path fill="none" stroke="#000000" stroke-linecap="round" stroke-miterlimit="10" stroke-dasharray="1,7" d="M50.266,174.467
			c-8.11,18.476-4.33,45.488,18.234,84.285"/>
		<path fill="none" stroke="#000000" stroke-linecap="round" stroke-miterlimit="10" stroke-dasharray="1,20" d="M89.662,144.662
			c-18.483,5.492-32.833,14.853-39.396,29.804"/>
		<path fill="none" stroke="#000000" stroke-linecap="round" stroke-miterlimit="10" stroke-dasharray="1,20" d="M148.255,137.987
			c-21.131-0.152-41.607,1.628-58.593,6.675"/>
		<path fill="none" stroke="#000000" stroke-linecap="round" stroke-miterlimit="10" stroke-dasharray="1,10" d="M230.229,145.838
			c-23.898-3.943-53.529-7.647-81.974-7.851"/>
		<path fill="none" stroke="#000000" stroke-linecap="round" stroke-miterlimit="10" stroke-dasharray="1,10" d="M305.029,158.667
			c-13.026-1.25-22.719-2.898-25.011-3.148c-0.325-0.035-0.643-0.081-0.965-0.14c-3.254-0.591-22.582-5.21-48.824-9.54"/>
		<path fill="none" stroke="#000000" stroke-linecap="round" stroke-miterlimit="10" stroke-dasharray="1,20" d="M382.503,151.809
			c-21.389,10.021-54.58,9.055-77.475,6.858"/>
		<path fill="none" stroke="#000000" stroke-linecap="round" stroke-miterlimit="10" stroke-dasharray="1,20" d="M401.565,109.105
			c1.251,3.738,1.935,7.687,1.935,11.855c0,15.352-8.476,24.983-20.997,30.849"/>
		<path fill="none" stroke="#000000" stroke-linecap="round" stroke-miterlimit="10" stroke-dasharray="1,4" d="M368.899,75.139
			c14.844,8.501,27.89,19.694,32.666,33.966"/>
		<path fill="none" stroke="#000000" stroke-linecap="round" stroke-miterlimit="10" stroke-dasharray="1,20" d="M316.383,54.845
			c11.244,2.844,33.375,9.331,52.516,20.294"/>
		<path fill="none" stroke="#000000" stroke-linecap="round" stroke-miterlimit="10" stroke-dasharray="1,20" d="M252.988,48.071
			c15.931-0.489,34.471,1.039,56.012,5.056c0,0,2.779,0.554,7.383,1.718"/>
		<path fill="none" stroke="#000000" stroke-linecap="round" stroke-miterlimit="10" stroke-dasharray="1,15" d="M172.205,88.755
			c12.339-22.361,36.459-39.326,80.783-40.685"/>
		<path fill="none" stroke="#000000" stroke-linecap="round" stroke-miterlimit="10" stroke-dasharray="1,15" d="M161.1,151.153
			c-1.357-20.521,0.624-43.405,11.105-62.397"/>
		<path fill="none" stroke="#000000" stroke-linecap="round" stroke-miterlimit="10" stroke-dasharray="1,20" d="M172.333,206.46
			c0,0-9.235-25.092-11.233-55.307"/>
	</g>
	<g id="Rain">

			<line fill="none" stroke="#000000" stroke-linecap="round" stroke-miterlimit="10" stroke-dasharray="3,20,1,30,3,50" x1="130.306" y1="429.904" x2="185.5" y2="342.94"/>

			<line fill="none" stroke="#000000" stroke-width="4" stroke-miterlimit="10" stroke-dasharray="1,7" x1="316.425" y1="136.654" x2="346.824" y2="88.757"/>

			<line fill="none" stroke="#000000" stroke-width="2" stroke-linecap="round" stroke-miterlimit="10" stroke-dasharray="1,7" x1="61.82" y1="342.436" x2="103.343" y2="277.011"/>

			<line fill="none" stroke="#000000" stroke-width="4" stroke-linecap="round" stroke-miterlimit="10" x1="132.229" y1="231.499" x2="152.247" y2="199.958"/>

			<line fill="none" stroke="#000000" stroke-width="4" stroke-linecap="round" stroke-miterlimit="10" x1="226.625" y1="82.767" x2="241.62" y2="59.142"/>

			<line fill="none" stroke="#000000" stroke-width="4" stroke-linecap="round" stroke-miterlimit="10" stroke-dasharray="1,7" x1="260.374" y1="29.592" x2="265.087" y2="22.166"/>

			<line fill="none" stroke="#000000" stroke-width="4" stroke-linecap="round" stroke-miterlimit="10" stroke-dasharray="1,7" x1="198.504" y1="127.076" x2="208.773" y2="110.895"/>

			<line fill="none" stroke="#000000" stroke-width="4" stroke-linecap="round" stroke-miterlimit="10" stroke-dasharray="1,3" x1="181.571" y1="154.683" x2="177.17" y2="160.913"/>

			<line fill="none" stroke="#000000" stroke-width="3" stroke-linecap="round" stroke-miterlimit="10" stroke-dasharray="3,5,10,5,3,9" x1="187.423" y1="339.911" x2="238.932" y2="258.752"/>

			<line fill="none" stroke="#000000" stroke-width="4" stroke-linecap="round" stroke-miterlimit="10" x1="252.985" y1="236.61" x2="290.519" y2="177.472"/>

			<line fill="none" stroke="#000000" stroke-width="4" stroke-linecap="round" stroke-miterlimit="10" x1="367.116" y1="56.784" x2="384.374" y2="29.592"/>

			<line display="none" fill="none" stroke="#000000" stroke-linecap="round" stroke-miterlimit="10" stroke-dasharray="1,7" x1="435.677" y1="122.076" x2="421.7" y2="144.098"/>

			<line display="none" fill="none" stroke="#000000" stroke-linecap="round" stroke-miterlimit="10" stroke-dasharray="3,3,10,3,3,6" x1="254" y1="288.96" x2="287" y2="288.96"/>
		<path display="none" fill="none" stroke="#000000" stroke-linecap="round" stroke-miterlimit="10" d="M417.748,150.325"/>
		<line display="none" fill="none" stroke="#000000" stroke-miterlimit="10" x1="327.5" y1="310.46" x2="327.5" y2="313.46"/>

			<line display="none" fill="none" stroke="#000000" stroke-miterlimit="10" stroke-dasharray="1,2" x1="347.5" y1="306.46" x2="347.5" y2="317.46"/>
		<line display="none" fill="none" stroke="#000000" stroke-miterlimit="10" x1="357.5" y1="301.46" x2="357.5" y2="321.46"/>

			<circle display="none" fill="none" stroke="#000000" stroke-linecap="round" stroke-miterlimit="10" cx="298.167" cy="353.793" r="1.958"/>

			<rect x="372.5" y="334.072" display="none" fill="none" stroke="#000000" stroke-linecap="round" stroke-miterlimit="10" width="10" height="2.763"/>

			<line display="none" fill="none" stroke="#000000" stroke-linecap="round" stroke-miterlimit="10" stroke-dasharray="1,13" x1="425" y1="344.96" x2="461" y2="344.96"/>

			<line display="none" fill="none" stroke="#000000" stroke-miterlimit="10" stroke-dasharray="1,2" x1="368" y1="303.96" x2="381" y2="303.96"/>
		<path display="none" fill="none" stroke="#000000" stroke-miterlimit="10" d="M267,353.96h23c0,0-0.5-7.5,8-7.5"/>
		<path display="none" fill="none" stroke="#000000" stroke-miterlimit="10" d="M267,353.96h23c0,0-0.5,7.5,8,7.5"/>

			<line display="none" fill="none" stroke="#000000" stroke-miterlimit="10" stroke-dasharray="1,4" x1="389" y1="303.96" x2="402" y2="303.96"/>

			<line fill="none" stroke="#000000" stroke-width="4" stroke-linecap="round" stroke-miterlimit="10" x1="458.229" y1="196.499" x2="478.247" y2="164.958"/>

			<line fill="none" stroke="#000000" stroke-width="2" stroke-linecap="round" stroke-miterlimit="10" stroke-dasharray="3,9,4,20,5,14" x1="500.306" y1="129.904" x2="555.5" y2="42.94"/>
	</g>
	<g id="Equals">
		<path fill="none" stroke="#000000" stroke-linecap="round" stroke-miterlimit="10" d="M345,338.96c-12,28.25-77.75,36.25-93,0"/>
		<path fill="none" stroke="#000000" stroke-linecap="round" stroke-miterlimit="10" d="M389.017,372.236
			c-3.671,9.524-8.899,20.321-16.324,31.319"/>
		<path fill="none" stroke="#000000" stroke-linecap="round" stroke-miterlimit="10" d="M397.5,338.96c0,0-1.067,14.04-8.483,33.276
			"/>
		<path fill="none" stroke="#000000" stroke-linecap="round" stroke-miterlimit="10" d="M413.938,338.96c0,0,0.062,7.938-2.25,23.5"
			/>

			<line fill="none" stroke="#000000" stroke-width="4" stroke-linecap="round" stroke-miterlimit="10" x1="90" y1="321.46" x2="183" y2="321.46"/>

			<line fill="none" stroke="#000000" stroke-width="4" stroke-linecap="round" stroke-miterlimit="10" x1="38" y1="321.46" x2="63" y2="321.46"/>
	</g>
	<g id="Squares">
		<polyline fill="none" stroke="#000000" stroke-width="4" stroke-linecap="round" stroke-miterlimit="10" points="313,321.46
			357,321.46 357,321.46 357.227,273.264 402.649,273.264 403,321.46 403,321.46 446,321.46 446,275.46 504.5,369.685 		"/>

			<line fill="none" stroke="#000000" stroke-width="4" stroke-linecap="round" stroke-miterlimit="10" x1="219" y1="321.46" x2="296.375" y2="321.46"/>

			<rect x="357.5" y="219.46" transform="matrix(0.8734 -0.487 0.487 0.8734 -66.1244 209.5769)" fill="none" stroke="#000000" stroke-width="4" stroke-miterlimit="10" width="25" height="25"/>

			<rect x="328.425" y="198.793" transform="matrix(0.5084 -0.8611 0.8611 0.5084 -11.8718 388.3667)" fill="none" stroke="#000000" stroke-width="4" stroke-miterlimit="10" width="11.575" height="11.575"/>

			<rect x="292.577" y="211.704" transform="matrix(0.7071 -0.7071 0.7071 0.7071 -65.2475 271.8935)" fill="none" stroke="#000000" stroke-width="2" stroke-miterlimit="10" width="6.007" height="6.007"/>

			<rect x="270.629" y="232.726" fill="none" stroke="#000000" stroke-width="2" stroke-miterlimit="10" width="2.371" height="3.023"/>
		<polyline fill="none" stroke="#000000" stroke-width="4" stroke-linecap="round" stroke-miterlimit="10" points="296.375,321.46
			296.375,306.335 313,306.335 313,321.46 		"/>
	</g>
	<g>
	</g>
	<g>
	</g>
	<g>
	</g>
	<g>
	</g>
	<g>
	</g>
	<g>
	</g>
	<g>
	</g>
	<g>
	</g>
	<g>
	</g>
	<g>
	</g>
	<g>
	</g>
	<g>
	</g>
	<g>
	</g>
	<g>
	</g>
	<g>
	</g>
</g>
</svg>
